<?xml version="1.0" encoding="utf-8"?>
<!-- Generator: Adobe Illustrator 27.5.0, SVG Export Plug-In . SVG Version: 6.00 Build 0)  -->
<svg version="1.1" id="Layer_1" xmlns="http://www.w3.org/2000/svg" xmlns:xlink="http://www.w3.org/1999/xlink" x="0px" y="0px"
	 viewBox="0 0 415.917 165.084" style="enable-background:new 0 0 415.917 165.084;" xml:space="preserve">
<g>
	<g>
		<path style="fill:#285DAB;" d="M405.343,84.168V61.9c0,0-0.292-4.429-8.542-6.172c-8.25-1.742-51.318-12.453-51.318-12.453
			s-43.657-32.699-58.44-36.538c-14.782-3.839-41.765-4.586-49.816-4.151c0,0-48.828-0.132-65.857,6.465
			c-17.029,6.596-47.326,39.222-58.818,43.045C101.06,55.919,33.4,70.491,23.668,76.866c0,0-7.568,3.351-9.453,9.15
			c-1.882,5.798-3.229,16.751-3.229,16.751s-3.897,2.785-4.671,4.679c-0.774,1.895,4.671,23.098,4.671,23.098
			s0.757,3.169,2.896,3.163c0.391-0.002,12.239-0.002,31.345-0.002c0.358-4.487,1.752-16.821,6.651-25.903
			c6.093-11.296,21.782-11.766,29.763-11.551c22.507,0.603,25.557,8.05,29.084,15.724c2.415,5.252,3.564,15.676,4.051,21.728
			c56.851,0.001,126.413,0.002,177.187,0.002c0.358-4.486,1.751-16.82,6.651-25.903c6.094-11.296,21.781-11.766,29.762-11.551
			c22.507,0.603,25.557,8.05,29.085,15.724c2.415,5.254,3.565,15.68,4.052,21.732c0.064,0,0.1,0,0.1,0l42.852-17.33
			c0,0,1.74-1.277,2.743-4.175c1.002-2.896,2.47-16.797,2.47-16.797L405.343,84.168z"/>
		<g>
			<linearGradient id="SVGID_1_" gradientUnits="userSpaceOnUse" x1="363.4375" y1="95.7232" x2="409.6797" y2="95.7232">
				<stop  offset="0" style="stop-color:#FFFFFF"/>
				<stop  offset="0.0795" style="stop-color:#DCDBDC"/>
				<stop  offset="0.2044" style="stop-color:#ABAAAA"/>
				<stop  offset="0.3325" style="stop-color:#827F80"/>
				<stop  offset="0.4614" style="stop-color:#5F5C5D"/>
				<stop  offset="0.5916" style="stop-color:#454142"/>
				<stop  offset="0.7234" style="stop-color:#322E2F"/>
				<stop  offset="0.8579" style="stop-color:#272324"/>
				<stop  offset="0.9993" style="stop-color:#231F20"/>
			</linearGradient>
			<polygon style="opacity:0.4;fill:url(#SVGID_1_);" points="363.438,107.278 409.68,95.405 405.343,84.168 			"/>
			<g>
				<path style="fill:#231F20;" d="M81.643,96.251c-7.981-0.215-23.67,0.255-29.763,11.551c-4.899,9.082-6.293,21.416-6.651,25.903
					c17.941-0.001,42.283-0.002,69.55-0.002c-0.486-6.053-1.636-16.476-4.051-21.728C107.199,104.301,104.15,96.854,81.643,96.251z"
					/>
				<path style="fill:#231F20;" d="M328.378,96.251c-7.981-0.215-23.668,0.255-29.762,11.551c-4.9,9.083-6.293,21.417-6.651,25.903
					c39.558,0.001,67.705,0.002,69.55,0.002c-0.487-6.053-1.637-16.479-4.052-21.732C353.935,104.301,350.886,96.854,328.378,96.251
					z"/>
			</g>
			<g>
				<path style="fill:#285DAB;" d="M405.343,84.168V61.9c0,0-0.292-4.429-8.542-6.172c-8.25-1.742-51.318-12.453-51.318-12.453
					s47.7,13.38,51.174,13.741c3.475,0.363,4.43,3.027,4.43,3.027s-21.98,0.261-25.108,1.65c-3.127,1.391-1.824,3.041-1.824,3.041
					s4.169,6.256,5.994,8.515s4.778,2.606,4.778,2.606l16.249,4.258l0.087,6.343l4.081,9.76l-41.442,10.918l42.398-9.036
					c0,0-0.608,8.861-0.957,12.077c-0.351,3.215-4.429,5.188-4.429,5.188l-38.056,15.713c0,0-0.521-10.388-4.17-21.075
					c-3.648-10.685-14.422-13.292-22.416-14.277c-7.993-0.985-21.373-1.621-31.974,4.026c-10.599,5.647-13.032,27.963-13.032,27.963
					c-1.3-0.591-1.477-2.372-1.477-2.372c0.694-14.026,8.948-26.024,8.948-26.024c-10.078,7.384-12.858,31.45-12.858,31.45H122.63
					c-3.732,0.174-6.518,1.577-6.518,1.577s0.347-13.393-6.169-25.644c-6.517-12.25-29.019-12.077-33.016-12.065
					c-3.996,0.011-14.684,0.423-22.937,8.048c-8.253,7.623-10.339,28.693-10.339,28.693s-14.944,0.173-16.877,0
					c-1.932-0.172-0.587-1.392-0.587-1.392s1.999-4.083,3.042-7.195c1.042-3.11-0.398-3.603-0.398-3.603s-9.767-9.794-11.116-11.415
					c-1.348-1.624-4.652-0.549-4.652-0.549s-5.642,1.997-5.949,1.461c-0.308-0.535,0.307,0.536,0-0.912
					c-0.308-1.449,4.477-4.591,4.477-4.591l15.83-1.756l-14.952,0.534v-4.208c0,0,10.417-2.171,13.054-2.656
					c2.636-0.483,9.352-6.641,11.351-8.878c1.999-2.235,2.912-4.67,2.912-4.67c-0.043-3.521-4.563-2.91-4.563-2.91l-17.018,2.91
					c0.371-0.804,4.206-3.67,6.171-5.102c-0.262,0.144-0.499,0.285-0.708,0.421c0,0-7.568,3.351-9.453,9.15
					c-1.882,5.798-3.229,16.751-3.229,16.751s-3.897,2.785-4.671,4.679c-0.774,1.895,4.671,23.098,4.671,23.098
					s0.757,3.169,2.896,3.163c0.391-0.002,12.239-0.002,31.345-0.002c0.358-4.487,1.752-16.821,6.651-25.903
					c6.093-11.296,21.782-11.766,29.763-11.551c22.507,0.603,25.557,8.05,29.084,15.724c2.415,5.252,3.564,15.676,4.051,21.728
					c56.851,0.001,126.413,0.002,177.187,0.002c0.358-4.486,1.751-16.82,6.651-25.903c6.094-11.296,21.781-11.766,29.762-11.551
					c22.507,0.603,25.557,8.05,29.085,15.724c2.415,5.254,3.565,15.68,4.052,21.732c0.064,0,0.1,0,0.1,0l42.852-17.33
					c0,0,1.74-1.277,2.743-4.175c1.002-2.896,2.47-16.797,2.47-16.797L405.343,84.168z"/>
			</g>
			<g>
				<path style="fill:#262628;" d="M81.643,96.251c-7.981-0.215-23.67,0.255-29.763,11.551c-4.899,9.082-6.293,21.416-6.651,25.903
					c17.941-0.001,42.283-0.002,69.55-0.002c-0.486-6.053-1.636-16.476-4.051-21.728C107.199,104.301,104.15,96.854,81.643,96.251z"
					/>
				<path style="fill:#262628;" d="M328.378,96.251c-7.981-0.215-23.668,0.255-29.762,11.551c-4.9,9.083-6.293,21.417-6.651,25.903
					c39.558,0.001,67.705,0.002,69.55,0.002c-0.487-6.053-1.637-16.479-4.052-21.732C353.935,104.301,350.886,96.854,328.378,96.251
					z"/>
			</g>
			<path style="opacity:0.4;fill:#2F3740;" d="M114.459,53.297c-0.549-0.332-0.98-0.789-1.322-1.295
				c-0.119,0.032-0.238,0.068-0.355,0.104c0.346,0.53,0.784,1.019,1.345,1.392c-0.597,0.882-4.012,5.588-10.275,7.859
				c-2.789,1.012-14.599,2.855-28.274,4.992c-17.135,2.677-37.752,5.896-48.239,8.671c-0.295,0.191-0.587,0.391-0.875,0.597
				c10.097-2.823,31.488-6.163,49.168-8.925c13.693-2.14,25.518-3.986,28.338-5.009c7.004-2.539,10.511-8.09,10.546-8.146
				l0.093-0.149L114.459,53.297z"/>
			<path style="fill:#414142;" d="M7.364,109.932c0,0-0.421,0.483-0.17,1.867c0.251,1.383,4.311,17.267,4.311,17.267
				s0.673,2.269,3.117,2.332h6.439c0,0,3.128-0.162,4.345-2.482c1.216-2.319,2.258-6.309,2.258-6.309s1.13-1.626-1.651-4.597
				c-2.78-2.97-9.47-9.618-9.47-9.618s-0.677-1.085-3.379-0.39C10.462,108.698,7.364,109.932,7.364,109.932z"/>
			<path style="fill:#111112;" d="M9.211,111.38c0,0-0.373,0.431-0.152,1.657c0.224,1.227,3.824,15.316,3.824,15.316
				s0.599,2.014,2.766,2.069h5.712c0,0,2.776-0.145,3.854-2.202s2.004-5.596,2.004-5.596s1.002-1.442-1.464-4.078
				c-2.466-2.634-8.402-8.532-8.402-8.532s-0.601-0.961-2.998-0.345C11.959,110.287,9.211,111.38,9.211,111.38z"/>
			<path style="fill:#353536;" d="M11.216,112.627c0,0-0.319,0.367-0.129,1.416c0.19,1.048,3.267,13.087,3.267,13.087
				s0.511,1.72,2.363,1.768h4.881c0,0,2.371-0.124,3.292-1.882c0.922-1.757,1.712-4.781,1.712-4.781s0.857-1.231-1.251-3.483
				c-2.107-2.252-7.178-7.29-7.178-7.29s-0.513-0.821-2.562-0.295C13.564,111.693,11.216,112.627,11.216,112.627z"/>
			<g>
				<path style="fill:#373736;" d="M300.42,15.415c7.182,4.519,37.997,27.455,37.997,27.455s4.053,2.548,7.066,0.405
					c0,0-37.939-28.416-55.057-35.375C290.501,7.981,293.335,10.959,300.42,15.415z"/>
			</g>
			<path style="fill:#006EB7;" d="M11.555,102.993c0,0-3.323,2.374-4.441,4.229l42.185-7.543L11.555,102.993z"/>
			<path style="fill:#373736;" d="M123.095,49.837c5.551-3.689,35.474-29.883,40.444-36.645
				c-16.656,10.601-39.339,33.801-49.827,38.448v0.001C113.712,51.642,117.233,53.733,123.095,49.837z"/>
			<path style="fill:#285DAB;" d="M81.813,91.594c-8.864-0.237-26.287,0.283-33.054,12.829c-5.642,10.458-7.098,24.797-7.426,29.282
				c1.263,0,2.559,0,3.896,0c0.358-4.487,1.752-16.821,6.651-25.903c6.093-11.296,21.782-11.766,29.763-11.551
				c22.507,0.603,25.557,8.05,29.084,15.724c2.415,5.252,3.564,15.676,4.051,21.728c1.284,0,2.578,0,3.876,0
				c-0.514-6.63-1.787-18.661-4.54-24.647C110.197,100.535,106.809,92.264,81.813,91.594z"/>
			
				<linearGradient id="SVGID_00000150072963946227738550000016038460216417117881_" gradientUnits="userSpaceOnUse" x1="41.3325" y1="112.6307" x2="118.6538" y2="112.6307">
				<stop  offset="0" style="stop-color:#FFFFFF"/>
				<stop  offset="0.0795" style="stop-color:#DCDBDC"/>
				<stop  offset="0.2044" style="stop-color:#ABAAAA"/>
				<stop  offset="0.3325" style="stop-color:#827F80"/>
				<stop  offset="0.4614" style="stop-color:#5F5C5D"/>
				<stop  offset="0.5916" style="stop-color:#454142"/>
				<stop  offset="0.7234" style="stop-color:#322E2F"/>
				<stop  offset="0.8579" style="stop-color:#272324"/>
				<stop  offset="0.9993" style="stop-color:#231F20"/>
			</linearGradient>
			<path style="opacity:0.4;fill:url(#SVGID_00000150072963946227738550000016038460216417117881_);" d="M81.813,91.594
				c-8.864-0.237-26.287,0.283-33.054,12.829c-5.642,10.458-7.098,24.797-7.426,29.282c1.263,0,2.559,0,3.896,0
				c0.358-4.487,1.752-16.821,6.651-25.903c6.093-11.296,21.782-11.766,29.763-11.551c22.507,0.603,25.557,8.05,29.084,15.724
				c2.415,5.252,3.564,15.676,4.051,21.728c1.284,0,2.578,0,3.876,0c-0.514-6.63-1.787-18.661-4.54-24.647
				C110.197,100.535,106.809,92.264,81.813,91.594z"/>
			<path style="fill:#285DAB;" d="M328.468,91.181c-8.942-0.238-26.519,0.288-33.346,12.943c-5.71,10.582-7.169,25.104-7.495,29.581
				c1.458,0,2.907,0,4.337,0c0.358-4.486,1.751-16.82,6.651-25.903c6.094-11.296,21.781-11.766,29.762-11.551
				c22.507,0.603,25.557,8.05,29.085,15.724c2.415,5.254,3.565,15.68,4.052,21.732c0.064,0,0.1,0,0.1,0l3.894-1.575
				c-0.588-6.88-1.879-17.73-4.456-23.334C357.102,100.202,353.685,91.857,328.468,91.181z"/>
			
				<linearGradient id="SVGID_00000040576297802994947010000014606859556067151545_" gradientUnits="userSpaceOnUse" x1="287.6279" y1="112.4251" x2="365.5088" y2="112.4251">
				<stop  offset="0" style="stop-color:#FFFFFF"/>
				<stop  offset="0.0795" style="stop-color:#DCDBDC"/>
				<stop  offset="0.2044" style="stop-color:#ABAAAA"/>
				<stop  offset="0.3325" style="stop-color:#827F80"/>
				<stop  offset="0.4614" style="stop-color:#5F5C5D"/>
				<stop  offset="0.5916" style="stop-color:#454142"/>
				<stop  offset="0.7234" style="stop-color:#322E2F"/>
				<stop  offset="0.8579" style="stop-color:#272324"/>
				<stop  offset="0.9993" style="stop-color:#231F20"/>
			</linearGradient>
			<path style="opacity:0.4;fill:url(#SVGID_00000040576297802994947010000014606859556067151545_);" d="M328.468,91.181
				c-8.942-0.238-26.519,0.288-33.346,12.943c-5.71,10.582-7.169,25.104-7.495,29.581c1.458,0,2.907,0,4.337,0
				c0.358-4.486,1.751-16.82,6.651-25.903c6.094-11.296,21.781-11.766,29.762-11.551c22.507,0.603,25.557,8.05,29.085,15.724
				c2.415,5.254,3.565,15.68,4.052,21.732c0.064,0,0.1,0,0.1,0l3.894-1.575c-0.588-6.88-1.879-17.73-4.456-23.334
				C357.102,100.202,353.685,91.857,328.468,91.181z"/>
			<g>
				<path style="fill:#4A4B4C;" d="M17.705,82.63c0,0-1.401,0.104-2.023,1.453c-0.622,1.35-3.212,10.946-3.212,12.191
					c0,1.243,13.107-2.286,14.503-2.933c5.743-2.659,11.584-10.445,11.584-10.619c0-0.174,1.751-3.182-2.823-3.317
					C31.158,79.271,17.705,82.63,17.705,82.63z"/>
				<path style="fill:#111112;" d="M21.408,82.879c0,0-1.072,0.079-1.548,1.111c-0.477,1.033-2.458,8.377-2.458,9.329
					c0,0.953,10.03-1.748,11.099-2.243c4.394-2.035,8.864-7.993,8.864-8.126c0-0.134,1.341-2.436-2.16-2.54
					C31.702,80.308,21.408,82.879,21.408,82.879z"/>
				<path style="opacity:0.2;fill:#F6F6F6;" d="M32.738,80.408c0,0-15.25,2.336-16.158,3.569c-0.908,1.232-3.05,10.448-3.05,10.448
					s9.15-4.283,13.303-8.112c4.152-3.828,6.165-5.905,6.165-5.905H32.738z"/>
				<path style="opacity:0.8;fill:#F6F6F6;" d="M20.885,84.145c2.297-1.214,4.808-2.193,7.302-2.91
					c0.214-0.063,0.429-0.125,0.643-0.188c-4.584,0.781-11.642,2.104-12.25,2.932c-0.73,0.991-2.255,7.133-2.827,9.509
					C15.432,89.766,17.042,86.172,20.885,84.145z"/>
			</g>
			<g>
				<path style="fill:#B51B1C;" d="M379.192,63.375c0,0-2.316,0.578-2.201,1.853c0.117,1.275,5.908,7.066,5.908,7.066
					s0.696,0.587,2.896,1.51c2.201,0.923,16.682,5.093,16.682,5.093s1.609,0.334,2.865,0.127V61.9c0,0-0.014-0.211-0.122-0.561l0,0
					C405.221,61.34,388.461,61.521,379.192,63.375z"/>
				<path style="fill:#880C09;" d="M379.192,63.375c0,0-2.316,0.578-2.201,1.853c0.117,1.275,5.908,7.066,5.908,7.066
					s0.696,0.587,2.896,1.51c2.201,0.923,16.682,5.093,16.682,5.093s1.609,0.334,2.865,0.127V61.9c0,0-0.014-0.211-0.122-0.561l0,0
					C405.221,61.34,388.461,61.521,379.192,63.375z"/>
				<path style="fill:#B51B1C;" d="M380.267,64.268c0,0-2.168,0.47-2.059,1.502c0.109,1.032,5.528,5.727,5.528,5.727
					s0.651,0.475,2.711,1.223c2.059,0.748,15.607,4.127,15.607,4.127s1.507,0.269,2.683,0.102V63.073c0,0-0.015-0.17-0.114-0.453
					l0,0C404.622,62.62,388.939,62.766,380.267,64.268z"/>
				<path style="fill:#B51B1C;" d="M380.468,67.429c0,0-2.723-2.026,0-2.549c2.721-0.521,21.952-1.737,23.689-1.563v9.558
					c0,0-0.52-4.865-4.054-5.562C396.57,66.618,380.468,67.429,380.468,67.429z"/>
				<path style="opacity:0.4;fill:#B75526;" d="M386.558,72.004c-2.365-0.462-4.41-3.243-4.41-3.243s2.143,1.506,5.213,2.143
					c3.071,0.639,16.797,2.724,16.797,2.724v2.851L386.558,72.004z"/>
			</g>
			<g>
				<path style="fill:#B6B7B9;" d="M291.965,135.111c0,1.528-6.065,2.769-7.542,2.769H122.761c-1.478,0-7.831-1.24-7.831-2.769l0,0
					c0-1.529,6.354-2.768,7.831-2.768h161.662C285.899,132.344,291.965,133.582,291.965,135.111L291.965,135.111z"/>
				<path style="opacity:0.5;fill:#B6B7B9;" d="M114.936,135.061c-0.001,0.017-0.006,0.033-0.006,0.05
					c0,1.528,6.354,2.769,7.831,2.769h161.662c1.477,0,7.542-1.24,7.542-2.769c0-0.017-0.004-0.033-0.006-0.05H114.936z"/>
			</g>
			<g>
				<path d="M15.958,111.087l4.253,17.811h1.387c0,0,0.135-0.008,0.349-0.041l-4.232-17.719
					C17.382,111.003,16.831,110.911,15.958,111.087z"/>
				<path d="M11.216,112.627c0,0-0.319,0.367-0.129,1.416c0.19,1.048,3.267,13.087,3.267,13.087s0.3,0.998,1.263,1.494l-3.871-16.2
					C11.417,112.547,11.216,112.627,11.216,112.627z"/>
				<path d="M19.55,112.835l3.731,15.624c0.45-0.206,0.909-0.506,1.272-0.946l-3.034-12.699
					C20.801,114.088,20.114,113.398,19.55,112.835z"/>
				<path d="M13.063,111.948l4.048,16.949h1.671l-4.167-17.451C14.072,111.609,13.54,111.784,13.063,111.948z"/>
				<path d="M26.603,122.234c0,0,0.857-1.231-1.251-3.483c-0.512-0.547-1.199-1.258-1.945-2.021l2.117,8.857
					C26.146,123.979,26.603,122.234,26.603,122.234z"/>
				<path style="fill:#313132;" d="M11.746,112.424l3.871,16.2c0.299,0.155,0.661,0.262,1.1,0.274h0.394l-4.048-16.949
					C12.534,112.131,12.076,112.299,11.746,112.424z"/>
				<path style="fill:#313132;" d="M15.612,111.166c-0.329,0.085-0.664,0.181-0.997,0.28l4.167,17.451h1.429l-4.253-17.811
					C15.848,111.109,15.733,111.134,15.612,111.166z"/>
				<path style="fill:#313132;" d="M18.174,111.461c0,0-0.118-0.184-0.458-0.323l4.232,17.719c0.32-0.05,0.819-0.162,1.334-0.397
					l-3.731-15.624C18.73,112.015,18.174,111.461,18.174,111.461z"/>
				<path style="fill:#313132;" d="M25.523,125.587l-2.117-8.857c-0.61-0.624-1.259-1.283-1.887-1.916l3.034,12.699
					c0.124-0.149,0.24-0.313,0.336-0.497C25.111,126.594,25.325,126.097,25.523,125.587z"/>
			</g>
			
				<linearGradient id="SVGID_00000029021928528618600470000016266930956249320081_" gradientUnits="userSpaceOnUse" x1="80.563" y1="38.0976" x2="80.563" y2="144.4381">
				<stop  offset="0" style="stop-color:#FFFFFF"/>
				<stop  offset="0.0795" style="stop-color:#DCDBDC"/>
				<stop  offset="0.2044" style="stop-color:#ABAAAA"/>
				<stop  offset="0.3325" style="stop-color:#827F80"/>
				<stop  offset="0.4614" style="stop-color:#5F5C5D"/>
				<stop  offset="0.5916" style="stop-color:#454142"/>
				<stop  offset="0.7234" style="stop-color:#322E2F"/>
				<stop  offset="0.8579" style="stop-color:#272324"/>
				<stop  offset="0.9993" style="stop-color:#231F20"/>
			</linearGradient>
			<path style="opacity:0.4;fill:url(#SVGID_00000029021928528618600470000016266930956249320081_);" d="M121.44,63.057
				l1.189,12.882l-84.134,8.229c0,0,1.158-4.766,8.109-8.551C53.556,71.831,121.44,63.057,121.44,63.057z"/>
			<path style="opacity:0.4;fill:#FFFFFF;" d="M110.32,53.645L45.228,70.018c0,0,44.383-9.536,51.074-11.107
				C105.164,56.829,110.32,53.645,110.32,53.645z"/>
			
				<linearGradient id="SVGID_00000170983890518040657980000016332901688351307161_" gradientUnits="userSpaceOnUse" x1="357.9992" y1="38.0934" x2="357.9992" y2="144.4506">
				<stop  offset="0" style="stop-color:#FFFFFF"/>
				<stop  offset="0.0795" style="stop-color:#DCDBDC"/>
				<stop  offset="0.2044" style="stop-color:#ABAAAA"/>
				<stop  offset="0.3325" style="stop-color:#827F80"/>
				<stop  offset="0.4614" style="stop-color:#5F5C5D"/>
				<stop  offset="0.5916" style="stop-color:#454142"/>
				<stop  offset="0.7234" style="stop-color:#322E2F"/>
				<stop  offset="0.8579" style="stop-color:#272324"/>
				<stop  offset="0.9993" style="stop-color:#231F20"/>
			</linearGradient>
			<polygon style="opacity:0.4;fill:url(#SVGID_00000170983890518040657980000016332901688351307161_);" points="323.709,58.458 
				318.387,64.855 397.612,58.91 			"/>
			<g>
				<path style="fill:#363635;" d="M112.088,131.419c0,17.226-13.962,31.189-31.184,31.189c-17.222,0-31.185-13.963-31.185-31.189
					c0-17.222,13.963-31.187,31.185-31.187C98.126,100.232,112.088,114.197,112.088,131.419z"/>
				<path style="fill:#4F4E4D;" d="M112.089,131.396c0,17.227-13.963,31.189-31.185,31.189s-31.185-13.963-31.185-31.189
					c0-17.221,13.963-31.187,31.185-31.187S112.089,114.176,112.089,131.396z"/>
				<path style="fill:#2D2D2C;" d="M110.32,131.375c0,16.248-13.17,29.419-29.416,29.419S51.49,147.623,51.49,131.375
					c0-16.243,13.169-29.416,29.414-29.416S110.32,115.132,110.32,131.375z"/>
				<g>
					<path style="fill:#909295;" d="M106.104,131.396c0,13.919-11.282,25.198-25.2,25.198c-13.913,0-25.198-11.279-25.198-25.198
						c0-13.915,11.285-25.196,25.198-25.196C94.822,106.2,106.104,117.481,106.104,131.396z"/>
					
						<linearGradient id="SVGID_00000112603458235742462730000006909968626794886065_" gradientUnits="userSpaceOnUse" x1="57.9014" y1="131.3979" x2="103.9106" y2="131.3979">
						<stop  offset="0" style="stop-color:#FFFFFF"/>
						<stop  offset="1" style="stop-color:#848689"/>
					</linearGradient>
					<path style="fill:url(#SVGID_00000112603458235742462730000006909968626794886065_);" d="M103.911,131.396
						c0,12.71-10.299,23.007-23.007,23.007c-12.705,0-23.002-10.297-23.002-23.007c0-12.706,10.298-23.004,23.002-23.004
						C93.611,108.393,103.911,118.69,103.911,131.396z"/>
					<g>
						<path style="fill:#151513;" d="M92.439,117.693c0.038-0.271,0.014-0.537-0.096-0.799c-2.448-2.202-5.607-3.625-9.094-3.896
							c-0.327,0.074-0.623,0.211-0.879,0.417c-0.123,0.173-0.222,0.356-0.31,0.555v12.794c0.068,0.173,0.15,0.331,0.255,0.49
							c0.068,0.036,0.143,0.074,0.217,0.108c0.211-0.021,0.416-0.06,0.613-0.128l9.177-9.184
							C92.371,117.934,92.409,117.815,92.439,117.693z"/>
						<path style="fill:#151513;" d="M99.168,130.327c0.219-0.166,0.389-0.373,0.494-0.633c-0.171-3.289-1.396-6.529-3.673-9.184
							c-0.283-0.179-0.593-0.293-0.921-0.331c-0.204,0.039-0.404,0.101-0.605,0.181l-9.047,9.046
							c-0.072,0.167-0.129,0.34-0.166,0.519c0.022,0.079,0.051,0.162,0.078,0.24c0.162,0.133,0.338,0.249,0.521,0.337h12.984
							C98.951,130.454,99.059,130.398,99.168,130.327z"/>
						<path style="fill:#151513;" d="M94.775,143.614c0.272,0.037,0.541,0.02,0.803-0.088c2.245-2.407,3.723-5.539,4.053-9.021
							c-0.064-0.328-0.198-0.628-0.401-0.89c-0.171-0.12-0.354-0.227-0.553-0.318l-12.788-0.221
							c-0.173,0.065-0.333,0.146-0.494,0.244c-0.037,0.073-0.078,0.148-0.108,0.223c0.01,0.207,0.05,0.415,0.115,0.609l9.017,9.34
							C94.537,143.541,94.656,143.584,94.775,143.614z"/>
						<path style="fill:#151513;" d="M82.371,149.311c0.167,0.216,0.374,0.387,0.636,0.485c3.286-0.218,6.511-1.494,9.129-3.805
							c0.177-0.284,0.29-0.596,0.317-0.928c-0.042-0.198-0.099-0.402-0.184-0.603l-9.177-8.92c-0.166-0.065-0.343-0.12-0.521-0.155
							c-0.082,0.025-0.156,0.054-0.238,0.084c-0.129,0.159-0.238,0.335-0.33,0.526l0.181,12.982
							C82.241,149.094,82.3,149.205,82.371,149.311z"/>
						<path style="fill:#151513;" d="M69.37,117.693c-0.038-0.271-0.011-0.537,0.096-0.799c2.452-2.202,5.611-3.625,9.098-3.896
							c0.324,0.074,0.623,0.211,0.881,0.417c0.117,0.173,0.215,0.356,0.304,0.555v12.794c-0.065,0.173-0.15,0.331-0.252,0.49
							c-0.071,0.036-0.148,0.074-0.225,0.108c-0.204-0.021-0.409-0.06-0.612-0.128l-9.175-9.184
							C69.438,117.934,69.397,117.815,69.37,117.693z"/>
						<path style="fill:#151513;" d="M62.645,130.327c-0.219-0.166-0.392-0.373-0.497-0.633c0.173-3.289,1.399-6.529,3.681-9.184
							c0.275-0.179,0.583-0.293,0.909-0.331c0.21,0.039,0.408,0.101,0.616,0.181l9.044,9.046c0.072,0.167,0.124,0.34,0.165,0.519
							c-0.022,0.079-0.048,0.162-0.079,0.24c-0.16,0.133-0.337,0.249-0.521,0.337H62.978
							C62.862,130.454,62.747,130.398,62.645,130.327z"/>
						<path style="fill:#151513;" d="M67.034,143.614c-0.274,0.037-0.542,0.02-0.804-0.088c-2.244-2.407-3.722-5.539-4.049-9.021
							c0.066-0.328,0.197-0.628,0.401-0.89c0.167-0.12,0.354-0.227,0.553-0.318l12.786-0.221c0.174,0.065,0.333,0.146,0.496,0.244
							c0.038,0.073,0.073,0.148,0.109,0.223c-0.013,0.207-0.054,0.415-0.116,0.609l-9.023,9.34
							C67.272,143.541,67.153,143.584,67.034,143.614z"/>
						<path style="fill:#151513;" d="M79.445,149.311c-0.173,0.216-0.377,0.387-0.64,0.485c-3.29-0.218-6.517-1.494-9.133-3.805
							c-0.181-0.284-0.285-0.596-0.32-0.928c0.045-0.198,0.103-0.402,0.187-0.603l9.177-8.92c0.168-0.065,0.344-0.12,0.521-0.155
							c0.082,0.025,0.157,0.054,0.239,0.084c0.132,0.159,0.237,0.335,0.33,0.526l-0.186,12.982
							C79.571,149.094,79.514,149.205,79.445,149.311z"/>
						<polygon style="fill:#151513;" points="80.936,131.605 80.936,131.605 80.936,131.605 						"/>
						<polygon style="fill:#151513;" points="80.936,131.605 80.936,131.605 80.936,131.605 						"/>
					</g>
					<path style="fill:#969792;" d="M87.662,131.396c0,3.733-3.023,6.76-6.758,6.76c-3.729,0-6.757-3.026-6.757-6.76
						c0-3.73,3.028-6.755,6.757-6.755C84.639,124.642,87.662,127.666,87.662,131.396z"/>
					<path style="fill:#C2C4C6;" d="M85.286,128.076c0,0.464-0.381,0.84-0.845,0.84c-0.471,0-0.845-0.376-0.845-0.84
						c0-0.467,0.374-0.842,0.845-0.842C84.904,127.234,85.286,127.609,85.286,128.076z"/>
					<path style="fill:#C2C4C6;" d="M81.775,126.874c0,0.465-0.374,0.839-0.839,0.839c-0.463,0-0.837-0.374-0.837-0.839
						c0-0.466,0.374-0.84,0.837-0.84C81.401,126.034,81.775,126.408,81.775,126.874z"/>
					<path style="fill:#C2C4C6;" d="M78.213,128.208c0,0.461-0.379,0.835-0.842,0.835c-0.466,0-0.844-0.374-0.844-0.835
						c0-0.468,0.378-0.846,0.844-0.846C77.834,127.362,78.213,127.74,78.213,128.208z"/>
					<path style="fill:#C2C4C6;" d="M85.286,135.432c0-0.466-0.381-0.845-0.845-0.845c-0.471,0-0.845,0.379-0.845,0.845
						c0,0.462,0.374,0.839,0.845,0.839C84.904,136.27,85.286,135.894,85.286,135.432z"/>
					<path style="fill:#C2C4C6;" d="M86.934,131.918c0-0.465-0.383-0.842-0.849-0.842c-0.463,0-0.837,0.377-0.837,0.842
						c0,0.463,0.374,0.837,0.837,0.837C86.551,132.755,86.934,132.381,86.934,131.918z"/>
					<path style="fill:#C2C4C6;" d="M76.562,131.918c0-0.465-0.374-0.842-0.837-0.842c-0.467,0-0.845,0.377-0.845,0.842
						c0,0.463,0.378,0.837,0.845,0.837C76.188,132.755,76.562,132.381,76.562,131.918z"/>
					<path style="fill:#C2C4C6;" d="M81.775,136.632c0-0.467-0.374-0.839-0.839-0.839c-0.463,0-0.837,0.372-0.837,0.839
						c0,0.465,0.374,0.84,0.837,0.84C81.401,137.472,81.775,137.097,81.775,136.632z"/>
					<path style="fill:#C2C4C6;" d="M78.213,135.3c0-0.462-0.379-0.84-0.842-0.84c-0.466,0-0.844,0.378-0.844,0.84
						c0,0.467,0.378,0.841,0.844,0.841C77.834,136.141,78.213,135.767,78.213,135.3z"/>
				</g>
			</g>
		</g>
		<g>
			<path style="fill:#363635;" d="M358.02,131.419c0,17.226-13.961,31.189-31.184,31.189c-17.223,0-31.185-13.963-31.185-31.189
				c0-17.222,13.962-31.187,31.185-31.187C344.059,100.232,358.02,114.197,358.02,131.419z"/>
			<path style="fill:#4F4E4D;" d="M358.022,131.396c0,17.227-13.963,31.189-31.185,31.189c-17.224,0-31.186-13.963-31.186-31.189
				c0-17.221,13.962-31.187,31.186-31.187C344.059,100.21,358.022,114.176,358.022,131.396z"/>
			<path style="fill:#2D2D2C;" d="M356.251,131.375c0,16.248-13.169,29.419-29.414,29.419c-16.246,0-29.415-13.171-29.415-29.419
				c0-16.243,13.169-29.416,29.415-29.416C343.082,101.959,356.251,115.132,356.251,131.375z"/>
			<g>
				<path style="fill:#909295;" d="M352.036,131.396c0,13.919-11.281,25.198-25.2,25.198c-13.914,0-25.199-11.279-25.199-25.198
					c0-13.915,11.285-25.196,25.199-25.196C340.755,106.2,352.036,117.481,352.036,131.396z"/>
				
					<linearGradient id="SVGID_00000181062643387901719210000016348748350014078122_" gradientUnits="userSpaceOnUse" x1="303.834" y1="131.3979" x2="349.8433" y2="131.3979">
					<stop  offset="0" style="stop-color:#FFFFFF"/>
					<stop  offset="1" style="stop-color:#848689"/>
				</linearGradient>
				<path style="fill:url(#SVGID_00000181062643387901719210000016348748350014078122_);" d="M349.843,131.396
					c0,12.71-10.301,23.007-23.007,23.007c-12.706,0-23.002-10.297-23.002-23.007c0-12.706,10.296-23.004,23.002-23.004
					C339.543,108.393,349.843,118.69,349.843,131.396z"/>
				<g>
					<path style="fill:#151513;" d="M338.371,117.693c0.038-0.271,0.014-0.537-0.095-0.799c-2.448-2.202-5.608-3.625-9.095-3.896
						c-0.327,0.074-0.622,0.211-0.878,0.417c-0.123,0.173-0.222,0.356-0.311,0.555v12.794c0.068,0.173,0.15,0.331,0.255,0.49
						c0.068,0.036,0.143,0.074,0.217,0.108c0.211-0.021,0.416-0.06,0.615-0.128l9.176-9.184
						C338.302,117.934,338.34,117.815,338.371,117.693z"/>
					<path style="fill:#151513;" d="M345.1,130.327c0.218-0.166,0.389-0.373,0.494-0.633c-0.171-3.289-1.397-6.529-3.674-9.184
						c-0.283-0.179-0.593-0.293-0.92-0.331c-0.205,0.039-0.404,0.101-0.605,0.181l-9.047,9.046c-0.072,0.167-0.13,0.34-0.167,0.519
						c0.024,0.079,0.051,0.162,0.078,0.24c0.16,0.133,0.336,0.249,0.521,0.337h12.983
						C344.882,130.454,344.991,130.398,345.1,130.327z"/>
					<path style="fill:#151513;" d="M340.707,143.614c0.274,0.037,0.542,0.02,0.805-0.088c2.243-2.407,3.722-5.539,4.052-9.021
						c-0.065-0.328-0.198-0.628-0.401-0.89c-0.171-0.12-0.355-0.227-0.552-0.318l-12.791-0.221
						c-0.173,0.065-0.333,0.146-0.493,0.244c-0.037,0.073-0.078,0.148-0.109,0.223c0.01,0.207,0.051,0.415,0.116,0.609l9.017,9.34
						C340.469,143.541,340.589,143.584,340.707,143.614z"/>
					<path style="fill:#151513;" d="M328.303,149.311c0.167,0.216,0.374,0.387,0.637,0.485c3.285-0.218,6.51-1.494,9.129-3.805
						c0.178-0.284,0.289-0.596,0.317-0.928c-0.042-0.198-0.099-0.402-0.184-0.603l-9.177-8.92c-0.167-0.065-0.343-0.12-0.522-0.155
						c-0.081,0.025-0.156,0.054-0.238,0.084c-0.13,0.159-0.238,0.335-0.33,0.526l0.181,12.982
						C328.172,149.094,328.231,149.205,328.303,149.311z"/>
					<path style="fill:#151513;" d="M315.302,117.693c-0.038-0.271-0.01-0.537,0.095-0.799c2.451-2.202,5.612-3.625,9.1-3.896
						c0.322,0.074,0.622,0.211,0.88,0.417c0.117,0.173,0.215,0.356,0.304,0.555v12.794c-0.065,0.173-0.151,0.331-0.252,0.49
						c-0.072,0.036-0.149,0.074-0.225,0.108c-0.204-0.021-0.409-0.06-0.613-0.128l-9.173-9.184
						C315.369,117.934,315.328,117.815,315.302,117.693z"/>
					<path style="fill:#151513;" d="M308.577,130.327c-0.218-0.166-0.392-0.373-0.497-0.633c0.173-3.289,1.399-6.529,3.681-9.184
						c0.275-0.179,0.583-0.293,0.909-0.331c0.211,0.039,0.408,0.101,0.616,0.181l9.043,9.046c0.073,0.167,0.123,0.34,0.165,0.519
						c-0.021,0.079-0.047,0.162-0.079,0.24c-0.159,0.133-0.335,0.249-0.52,0.337h-12.983
						C308.794,130.454,308.679,130.398,308.577,130.327z"/>
					<path style="fill:#151513;" d="M312.964,143.614c-0.271,0.037-0.54,0.02-0.802-0.088c-2.245-2.407-3.722-5.539-4.049-9.021
						c0.064-0.328,0.197-0.628,0.402-0.89c0.167-0.12,0.354-0.227,0.552-0.318l12.786-0.221c0.173,0.065,0.333,0.146,0.497,0.244
						c0.036,0.073,0.071,0.148,0.109,0.223c-0.013,0.207-0.055,0.415-0.116,0.609l-9.023,9.34
						C313.204,143.541,313.085,143.584,312.964,143.614z"/>
					<path style="fill:#151513;" d="M325.376,149.311c-0.173,0.216-0.377,0.387-0.64,0.485c-3.288-0.218-6.517-1.494-9.132-3.805
						c-0.18-0.284-0.286-0.596-0.32-0.928c0.043-0.198,0.103-0.402,0.188-0.603l9.176-8.92c0.167-0.065,0.343-0.12,0.521-0.155
						c0.082,0.025,0.157,0.054,0.238,0.084c0.133,0.159,0.239,0.335,0.33,0.526l-0.184,12.982
						C325.502,149.094,325.446,149.205,325.376,149.311z"/>
					<polygon style="fill:#151513;" points="326.869,131.605 326.869,131.605 326.869,131.605 					"/>
					<polygon style="fill:#151513;" points="326.869,131.605 326.869,131.605 326.869,131.605 					"/>
				</g>
				<path style="fill:#969792;" d="M333.594,131.396c0,3.733-3.024,6.76-6.758,6.76c-3.729,0-6.757-3.026-6.757-6.76
					c0-3.73,3.028-6.755,6.757-6.755C330.57,124.642,333.594,127.666,333.594,131.396z"/>
				<path style="fill:#C2C4C6;" d="M331.217,128.076c0,0.464-0.381,0.84-0.844,0.84c-0.47,0-0.845-0.376-0.845-0.84
					c0-0.467,0.375-0.842,0.845-0.842C330.835,127.234,331.217,127.609,331.217,128.076z"/>
				<path style="fill:#C2C4C6;" d="M327.707,126.874c0,0.465-0.375,0.839-0.838,0.839c-0.463,0-0.837-0.374-0.837-0.839
					c0-0.466,0.375-0.84,0.837-0.84C327.332,126.034,327.707,126.408,327.707,126.874z"/>
				<path style="fill:#C2C4C6;" d="M324.146,128.208c0,0.461-0.378,0.835-0.842,0.835c-0.465,0-0.844-0.374-0.844-0.835
					c0-0.468,0.378-0.846,0.844-0.846C323.767,127.362,324.146,127.74,324.146,128.208z"/>
				<path style="fill:#C2C4C6;" d="M331.217,135.432c0-0.466-0.381-0.845-0.844-0.845c-0.47,0-0.845,0.379-0.845,0.845
					c0,0.462,0.375,0.839,0.845,0.839C330.835,136.27,331.217,135.894,331.217,135.432z"/>
				<path style="fill:#C2C4C6;" d="M332.865,131.918c0-0.465-0.381-0.842-0.848-0.842c-0.463,0-0.837,0.377-0.837,0.842
					c0,0.463,0.374,0.837,0.837,0.837C332.484,132.755,332.865,132.381,332.865,131.918z"/>
				<path style="fill:#C2C4C6;" d="M322.493,131.918c0-0.465-0.375-0.842-0.837-0.842c-0.467,0-0.845,0.377-0.845,0.842
					c0,0.463,0.378,0.837,0.845,0.837C322.118,132.755,322.493,132.381,322.493,131.918z"/>
				<path style="fill:#C2C4C6;" d="M327.707,136.632c0-0.467-0.375-0.839-0.838-0.839c-0.463,0-0.837,0.372-0.837,0.839
					c0,0.465,0.375,0.84,0.837,0.84C327.332,137.472,327.707,137.097,327.707,136.632z"/>
				<path style="fill:#C2C4C6;" d="M324.146,135.3c0-0.462-0.378-0.84-0.842-0.84c-0.465,0-0.844,0.378-0.844,0.84
					c0,0.467,0.378,0.841,0.844,0.841C323.767,136.141,324.146,135.767,324.146,135.3z"/>
			</g>
		</g>
	</g>
	<g>
		<g>
			<g>
				<path style="fill:#285DAB;" d="M222.985,7.906c0,0-46.125-0.837-62.994,12.257c-16.869,13.095-34.427,29.499-35.029,34.291
					c-0.602,4.793,5.043,66.524,5.043,66.524s0.606,6.245,5.341,5.691h134.572c0,0,6.521-0.251,8.606-4.492
					c3.475-7.066,2.609-6.947,41.958-61.815c0,0,2.294-2.524,3.624-6.828c0.946-3.061,1.229-9.552,1.229-9.552
					s0.392-5.59-3.254-9.105c-3.646-3.516-20.087-17.876-32.205-22.096C275.455,7.759,222.985,7.906,222.985,7.906z"/>
				<path style="fill:#373736;" d="M134.764,127.052c-4.467,0-5.1-5.979-5.106-6.04c-0.23-2.524-5.641-61.826-5.042-66.602
					c0.371-2.947,6.47-9.371,11.519-14.238c6.534-6.299,15.151-13.691,23.643-20.283c15.131-11.745,53.915-12.34,61.536-12.34
					c1.082,0,1.678,0.01,1.678,0.01h0.468c5.371,0,52.873,0.138,66.533,4.895c12.14,4.229,28.59,18.566,32.332,22.174
					c3.718,3.587,3.375,9.146,3.358,9.38c-0.012,0.258-0.295,6.562-1.243,9.631c-1.297,4.2-3.47,6.703-3.685,6.942
					c-36.976,51.557-38.434,54.564-41.332,60.551c-0.186,0.383-0.378,0.779-0.586,1.201c-2.152,4.376-8.631,4.675-8.905,4.685
					H135.365C135.161,127.04,134.96,127.052,134.764,127.052z M221.314,8.244c-7.582,0-46.158,0.587-61.109,12.194
					c-20.957,16.267-34.432,30.345-34.897,34.059c-0.59,4.701,4.988,65.833,5.045,66.449c0.004,0.053,0.577,5.411,4.413,5.411
					c0.174,0,0.357-0.013,0.54-0.033l0.042-0.002h134.572c0.049-0.002,6.326-0.295,8.294-4.298c0.207-0.42,0.398-0.815,0.583-1.198
					c2.917-6.021,4.381-9.044,41.405-60.666l0.025-0.031c0.022-0.025,2.26-2.524,3.55-6.696c0.921-2.983,1.209-9.401,1.211-9.466
					c0.004-0.063,0.335-5.481-3.147-8.84c-3.717-3.585-20.057-17.831-32.077-22.017c-13.551-4.721-60.945-4.858-66.304-4.858
					l-0.473,0.002C222.977,8.255,222.386,8.244,221.314,8.244z"/>
			</g>
			<path style="fill:#3B3C3C;" d="M216.433,8.797c0,0-30.004,1.447-42.63,6.61c-10.543,4.312-13.326,5.94-18.48,9.975
				c0,0-6.12,5.543-10.965,9.886c-4.845,4.343-19.904,18.4-16.43,18.901c3.476,0.502,193.726,0,193.726,0s1.298,0.095,1.529-1.815
				c0.232-1.912,1.705-10.231-0.688-14.278c-2.393-4.045-21.003-17.782-23.667-19.288c-2.665-1.505-9.702-5.704-16.247-6.574
				c-6.545-0.868-39.735-3.012-39.735-3.012L216.433,8.797z"/>
			
				<linearGradient id="SVGID_00000017483388812770482210000013099622855961993113_" gradientUnits="userSpaceOnUse" x1="208.9182" y1="-7.9521" x2="224.5572" y2="45.5679">
				<stop  offset="0" style="stop-color:#FFFFFF"/>
				<stop  offset="1" style="stop-color:#231F20"/>
			</linearGradient>
			<path style="opacity:0.3;fill:url(#SVGID_00000017483388812770482210000013099622855961993113_);" d="M179.29,40.115
				c35.619-5.992,72.089-7.979,108.156-6.348c11.175,0.505,22.363,1.285,33.505,2.435c-5.153-5.341-19.785-16.093-22.125-17.416
				c-2.665-1.505-9.702-5.704-16.247-6.574c-6.545-0.868-39.735-3.012-39.735-3.012l-26.412-0.404c0,0-30.004,1.447-42.63,6.61
				c-10.543,4.312-13.326,5.94-18.48,9.975c0,0-6.12,5.543-10.965,9.886c-4.056,3.637-15.271,14.081-16.775,17.678
				C144.411,47.226,161.762,43.065,179.29,40.115z"/>
			<path style="fill:#3B3C3C;" d="M322.493,38.075c-2.393-4.045-21.003-17.782-23.667-19.288c-2.665-1.505-9.702-5.704-16.247-6.574
				c-6.545-0.868-39.735-3.012-39.735-3.012l-26.412-0.404c0,0-30.004,1.447-42.63,6.61c-10.543,4.312-13.326,5.94-18.48,9.975
				c0,0-6.12,5.543-10.965,9.886c-4.845,4.343-19.904,18.4-16.43,18.901c3.476,0.502,193.726,0,193.726,0s1.298,0.095,1.529-1.815
				C323.414,50.441,324.887,42.122,322.493,38.075z M313.608,50.594c-0.21,1.734-1.388,1.646-1.388,1.646s-172.544,0.456-175.695,0
				c-3.152-0.453,10.506-13.202,14.9-17.141c4.394-3.938,9.944-8.967,9.944-8.967c4.674-3.66,7.197-5.136,16.76-9.046
				c11.452-4.684,38.663-5.996,38.663-5.996l23.954,0.368c0,0,30.101,1.942,36.037,2.731c5.937,0.789,12.318,4.598,14.735,5.963
				c2.416,1.365,19.293,13.825,21.464,17.493C315.154,41.313,313.819,48.86,313.608,50.594z"/>
			<g>
				<path style="fill:#272728;" d="M127.927,54.068c0.477,0.069,4.479,0.12,11.018,0.154l0.657-14.666
					C133.439,45.388,125.272,53.687,127.927,54.068z"/>
			</g>
			<g>
				<path style="fill:#272728;" d="M130.438,48.879c0.595,1.517,1.101,3.067,1.591,4.623c0.068,0.218,0.13,0.44,0.188,0.669
					c1.765,0.021,4.03,0.037,6.729,0.052l0.657-14.666C136.512,42.48,132.918,46.022,130.438,48.879z"/>
			</g>
			<path style="fill:#373736;" d="M139.913,40.423c-2.138,1.88-7.04,6.255-7.582,7.301c-0.695,1.344,0.926,5.826,2.026,7.003
				c0,0,0.58,0.654,1.506,0.887c0.609,0.152,4.221-0.563,6.625-1.071C142.182,49.741,141.339,45.019,139.913,40.423z"/>
			<path style="fill:#373736;" d="M139.913,40.423c-2.138,1.88-7.04,6.255-7.582,7.301c-0.695,1.344,0.926,5.826,2.026,7.003
				c0,0,0.58,0.654,1.506,0.887c0.609,0.152,4.221-0.563,6.625-1.071C142.182,49.741,141.339,45.019,139.913,40.423z"/>
			<path style="fill:#373736;" d="M134.695,46.342c1.816-1.545,3.726-2.993,5.669-4.382c-0.144-0.515-0.293-1.027-0.452-1.537
				c-2.138,1.88-7.04,6.255-7.582,7.301c-0.184,0.354-0.203,0.931-0.116,1.604C132.755,48.173,133.702,47.188,134.695,46.342z"/>
			<path style="opacity:0.5;fill:#373736;" d="M141.956,49.477c0.019,0.725,0.005,1.451-0.065,2.183
				c-0.147,1.518-1.683,1.777-2.94,1.928c-1.554,0.186-3.379,0.321-4.529-0.98c-1.056-1.195-1.785-2.692-2.249-4.226
				c-0.13,1.778,1.225,5.319,2.185,6.347c0,0,0.58,0.654,1.506,0.887c0.609,0.152,4.221-0.563,6.625-1.071
				C142.379,52.843,142.201,51.154,141.956,49.477z"/>
			<path style="fill:#363436;" d="M226.278,13.793l-4.344,40.473l9.994,0.044c0.938-21.655,1.717-40.425,1.717-40.425
				s-0.56-3.069,5.608-4.738l-18.08-0.277C221.173,8.869,226.105,9.217,226.278,13.793z"/>
			<path style="opacity:0.5;fill:#6E6C6D;" d="M322.493,55.286h-96.119c1.712-21.097,3.809-45.944,3.844-46.354l-0.692-0.059
				c-0.035,0.411-2.135,25.299-3.85,46.413H124.931v0.695h100.69c-1.087,13.386-2.004,25.116-2.123,27.906
				c-0.21,4.955-1.378,42.596-1.39,42.976l0.695,0.022c0.011-0.38,1.179-38.017,1.389-42.968c0.119-2.788,1.038-14.536,2.125-27.936
				h96.175V55.286z"/>
		</g>
		
			<linearGradient id="SVGID_00000090974509020788302260000013802243038223223225_" gradientUnits="userSpaceOnUse" x1="222.9685" y1="38.0982" x2="222.9685" y2="144.4362">
			<stop  offset="0" style="stop-color:#FFFFFF"/>
			<stop  offset="0.0795" style="stop-color:#DCDBDC"/>
			<stop  offset="0.2044" style="stop-color:#ABAAAA"/>
			<stop  offset="0.3325" style="stop-color:#827F80"/>
			<stop  offset="0.4614" style="stop-color:#5F5C5D"/>
			<stop  offset="0.5916" style="stop-color:#454142"/>
			<stop  offset="0.7234" style="stop-color:#322E2F"/>
			<stop  offset="0.8579" style="stop-color:#272324"/>
			<stop  offset="0.9993" style="stop-color:#231F20"/>
		</linearGradient>
		<polygon style="opacity:0.4;fill:url(#SVGID_00000090974509020788302260000013802243038223223225_);" points="127.983,62.585 
			129.414,75.938 312.814,65.084 317.954,58.91 		"/>
		<g>
			<path style="fill:#006EB7;" d="M213.157,69.858c0,2.824-4.352,5.113-9.717,5.113c-5.369,0-9.719-2.289-9.719-5.113
				c0-2.823,4.35-5.113,9.719-5.113C208.806,64.745,213.157,67.035,213.157,69.858z"/>
			<path style="fill:#006EB7;" d="M212.835,70.028c0,2.73-4.206,4.943-9.395,4.943c-5.191,0-9.398-2.213-9.398-4.943
				c0-2.73,4.207-4.944,9.398-4.944C208.628,65.084,212.835,67.298,212.835,70.028z"/>
			<g>
				<path style="fill:#285DAB;" d="M215.507,69.74c0-1.454-5.319-2.078-11.88-2.078c-6.563,0-11.882,0.624-11.882,2.078
					c0,1.454,5.318,2.634,11.882,2.634C210.188,72.374,215.507,71.194,215.507,69.74z"/>
				<path style="fill:#285DAB;" d="M197.174,68.674c2.772-0.247,5.548-0.342,8.333-0.357c2.888-0.016,5.788,0.052,8.665,0.331
					c-1.98-0.68-5.958-0.985-10.545-0.985c-6.235,0-11.344,0.563-11.839,1.866C193.505,68.947,195.378,68.833,197.174,68.674z"/>
				<path style="fill:#285DAB;" d="M203.627,67.662c-6.563,0-11.882,0.624-11.882,2.078c0,1.454,5.318,2.634,11.882,2.634
					c6.561,0,11.88-1.18,11.88-2.634C215.507,68.286,210.188,67.662,203.627,67.662z M201.452,71.347
					c-4.869,0-8.815-0.874-8.815-1.953c0-1.08,3.946-1.542,8.815-1.542c4.868,0,8.815,0.462,8.815,1.542
					C210.267,70.473,206.32,71.347,201.452,71.347z"/>
				<path style="fill:#87898C;" d="M213.615,69.711c0,0.446-0.362,0.807-0.808,0.807c-0.446,0-0.807-0.36-0.807-0.807
					c0-0.446,0.361-0.807,0.807-0.807C213.252,68.904,213.615,69.265,213.615,69.711z"/>
			</g>
		</g>
		<g>
			<path style="fill:#006EB7;" d="M307.683,69.858c0,2.824-4.35,5.113-9.717,5.113s-9.718-2.289-9.718-5.113
				c0-2.823,4.351-5.113,9.718-5.113S307.683,67.035,307.683,69.858z"/>
			<path style="fill:#006EB7;" d="M307.362,70.028c0,2.73-4.208,4.943-9.397,4.943c-5.189,0-9.396-2.213-9.396-4.943
				c0-2.73,4.207-4.944,9.396-4.944C303.155,65.084,307.362,67.298,307.362,70.028z"/>
			<g>
				<path style="fill:#285DAB;" d="M310.033,69.74c0-1.454-5.319-2.078-11.881-2.078c-6.561,0-11.881,0.624-11.881,2.078
					c0,1.454,5.319,2.634,11.881,2.634C304.714,72.374,310.033,71.194,310.033,69.74z"/>
				<path style="fill:#285DAB;" d="M291.7,68.674c2.773-0.247,5.55-0.342,8.333-0.357c2.888-0.016,5.79,0.052,8.665,0.331
					c-1.98-0.68-5.958-0.985-10.546-0.985c-6.232,0-11.343,0.563-11.839,1.866C288.032,68.947,289.904,68.833,291.7,68.674z"/>
				<path style="fill:#285DAB;" d="M298.152,67.662c-6.561,0-11.881,0.624-11.881,2.078c0,1.454,5.319,2.634,11.881,2.634
					c6.563,0,11.881-1.18,11.881-2.634C310.033,68.286,304.714,67.662,298.152,67.662z M295.978,71.347
					c-4.868,0-8.815-0.874-8.815-1.953c0-1.08,3.947-1.542,8.815-1.542c4.869,0,8.816,0.462,8.816,1.542
					C304.793,70.473,300.846,71.347,295.978,71.347z"/>
				<path style="fill:#87898C;" d="M308.142,69.711c0,0.446-0.362,0.807-0.808,0.807c-0.446,0-0.807-0.36-0.807-0.807
					c0-0.446,0.361-0.807,0.807-0.807C307.78,68.904,308.142,69.265,308.142,69.711z"/>
			</g>
		</g>
	</g>
</g>
</svg>
